<svg xmlns="http://www.w3.org/2000/svg" version="1.1" xmlns:xlink="http://www.w3.org/1999/xlink" xmlns:svgjs="http://svgjs.dev/svgjs" width="1000" height="623" viewBox="0 0 1000 623"><g transform="matrix(1,0,0,1,-0.6060606060606233,0.2522267206477409)"><svg viewBox="0 0 396 247" data-background-color="#ffffff" preserveAspectRatio="xMidYMid meet" height="623" width="1000" xmlns="http://www.w3.org/2000/svg" xmlns:xlink="http://www.w3.org/1999/xlink"><g id="tight-bounds" transform="matrix(1,0,0,1,0.2400000000000091,-0.09999999999999432)"><svg viewBox="0 0 395.52 247.2" height="247.2" width="395.52"><g><svg></svg></g><g><svg viewBox="0 0 395.52 247.2" height="247.2" width="395.52"><g transform="matrix(1,0,0,1,123.32545021276594,47.215199999999996)"><svg viewBox="0 0 148.8690995744681 152.7696" height="152.7696" width="148.8690995744681"><g><svg viewBox="0 0 148.8690995744681 152.7696" height="152.7696" width="148.8690995744681"><g><svg viewBox="0 0 148.8690995744681 152.7696" height="152.7696" width="148.8690995744681"><g><svg viewBox="0 0 148.8690995744681 152.7696" height="152.7696" width="148.8690995744681"><g id="textblocktransform"><svg viewBox="0 0 148.8690995744681 152.7696" height="152.7696" width="148.8690995744681" id="textblock"><g><svg viewBox="0 0 148.8690995744681 152.7696" height="152.7696" width="148.8690995744681"><g transform="matrix(1,0,0,1,0,0)"><svg width="148.8690995744681" viewBox="0.10000000149011612 -35.25 34.35000228881836 35.25" height="152.7696" data-palette-color="#ee3e38"><path d="M17.3-5.15L30.25-35.25 34.45-35.25 19.05 0 15.5 0 0.1-35.25 4.4-35.25 17.3-5.15Z" opacity="1" transform="matrix(1,0,0,1,0,0)" fill="#ee3e38" class="wordmark-text-0" data-fill-palette-color="primary" id="text-0"></path></svg></g></svg></g></svg></g></svg></g></svg></g></svg></g></svg></g><path d="M89.893 41.215L89.893 0 337.093 0 337.093 247.2 89.893 247.2 89.893 205.985 103.67 205.985 103.67 233.423 323.316 233.423 323.316 13.777 103.67 13.777 103.67 41.215Z" fill="#ee3e38" stroke="transparent" data-fill-palette-color="primary"></path></svg></g><defs></defs></svg><rect width="395.52" height="247.2" fill="none" stroke="none" visibility="hidden"></rect></g></svg></g></svg>